<svg version="1.1" id="Layer_1" xmlns="http://www.w3.org/2000/svg" x="0" y="0" viewBox="0 0 440 130" xml:space="preserve"><style>.st0{fill:#fff}</style><path class="st0" d="M148.6 38.2H168v55.2h32.5v15.3h-52V38.2zM203.9 73.8c0-5.8.8-10.9 2.4-15.5 1.6-4.6 3.9-8.5 7-11.6 3.1-3.2 6.9-5.6 11.5-7.3 4.5-1.7 9.7-2.5 15.6-2.5 5.7 0 10.8.8 15.3 2.4 4.5 1.6 8.3 4 11.3 7.1 3.1 3.1 5.4 6.9 7 11.4 1.6 4.5 2.4 9.7 2.4 15.4 0 5.8-.8 11-2.4 15.5-1.6 4.6-3.9 8.4-7 11.6s-6.9 5.6-11.5 7.3c-4.5 1.7-9.7 2.5-15.6 2.5-5.7 0-10.8-.8-15.3-2.4-4.5-1.6-8.3-4-11.3-7.1-3.1-3.1-5.4-6.9-7-11.4-1.6-4.5-2.4-9.6-2.4-15.4zm36.4 21.7c2.9 0 5.4-.6 7.4-1.7 2-1.2 3.7-2.7 4.9-4.7 1.3-2 2.2-4.3 2.8-6.9.6-2.6.9-5.4.9-8.3 0-2.9-.3-5.7-.8-8.4-.6-2.7-1.5-5.1-2.8-7.1-1.3-2.1-3-3.7-5.1-5-2.1-1.3-4.6-1.9-7.6-1.9-2.9 0-5.4.6-7.4 1.7-2 1.2-3.7 2.7-4.9 4.7-1.3 2-2.2 4.3-2.8 6.9-.6 2.6-.9 5.4-.9 8.3 0 2.9.3 5.7.8 8.4.6 2.7 1.5 5.1 2.8 7.1 1.3 2.1 3 3.7 5.1 5 2.1 1.3 4.6 1.9 7.6 1.9zM284.2 74c0-5.8.8-10.9 2.3-15.5 1.5-4.6 3.8-8.5 6.8-11.7 3-3.2 6.7-5.7 11.2-7.4 4.4-1.7 9.6-2.6 15.3-2.6 2.6 0 5.2.2 7.8.6s5 .9 7.3 1.7c2.3.7 4.5 1.7 6.5 2.8 2 1.1 3.7 2.5 5.1 4 1.4 1.5 2.6 3.3 3.4 5.2.8 2 1.2 4.1 1.2 6.5 0 .7 0 1.3-.1 1.9l-.3 1.8-18.8 2.3v-.8-.7c0-2.1-.3-3.8-.9-5.2a8.5 8.5 0 00-2.5-3.3c-1.1-.8-2.3-1.4-3.7-1.8-1.4-.3-2.9-.5-4.4-.5-2.8 0-5.2.5-7.3 1.5-2 1-3.7 2.5-5.1 4.4-1.3 1.9-2.3 4.2-3 7-.6 2.7-1 5.8-1 9.2 0 3.3.3 6.2.9 8.9.6 2.7 1.7 5 3.1 6.9 1.4 1.9 3.3 3.4 5.6 4.5s5.2 1.6 8.5 1.6c1.8 0 3.8-.2 5.7-.5 2-.3 3.8-.9 5.4-1.7v-8H320V70.6h33v29.8c-4.3 3.1-9.2 5.5-14.5 7.2-5.3 1.7-11.1 2.5-17.5 2.5-6.2 0-11.6-.8-16.2-2.5-4.6-1.6-8.4-4-11.5-7.1s-5.4-6.9-6.9-11.4c-1.4-4.4-2.2-9.4-2.2-15.1zM362.8 73.8c0-5.8.8-10.9 2.4-15.5 1.6-4.6 3.9-8.5 7-11.6 3.1-3.2 6.9-5.6 11.5-7.3 4.5-1.7 9.7-2.5 15.6-2.5 5.7 0 10.8.8 15.3 2.4 4.5 1.6 8.3 4 11.3 7.1 3.1 3.1 5.4 6.9 7 11.4 1.6 4.5 2.4 9.7 2.4 15.4 0 5.8-.8 11-2.4 15.5-1.6 4.6-3.9 8.4-7 11.6s-6.9 5.6-11.5 7.3c-4.5 1.7-9.7 2.5-15.6 2.5-5.7 0-10.8-.8-15.3-2.4-4.5-1.6-8.3-4-11.3-7.1s-5.4-6.9-7-11.4c-1.6-4.5-2.4-9.6-2.4-15.4zm36.5 21.7c2.9 0 5.4-.6 7.4-1.7 2-1.2 3.7-2.7 4.9-4.7 1.3-2 2.2-4.3 2.8-6.9.6-2.6.9-5.4.9-8.3 0-2.9-.3-5.7-.8-8.4-.6-2.7-1.5-5.1-2.8-7.1-1.3-2.1-3-3.7-5.1-5-2.1-1.3-4.6-1.9-7.6-1.9-2.9 0-5.4.6-7.4 1.7-2 1.2-3.7 2.7-4.9 4.7-1.3 2-2.2 4.3-2.8 6.9-.6 2.6-.9 5.4-.9 8.3 0 2.9.3 5.7.8 8.4.6 2.7 1.5 5.1 2.8 7.1 1.3 2.1 3 3.7 5.1 5 2.1 1.3 4.6 1.9 7.6 1.9z"/><g><path class="st0" d="M74.7 18.9L38.5 55.1l-.9-11.8c-.3-4.2-4.1-7.7-8.3-7.7-4.1 0-7.5 2.9-8.2 6.7-.4 1.5-9.6 37.1-11.4 49.3-.1.8.1 1.5.7 2.1L41.7 125c.8.8 2 .9 2.9.4l25.3-14.1c4.2-2.3 8-5.2 11.4-8.6L92.1 92c3.8-3.8 3.8-10.1 0-13.9l-2.6-2.6-12.2 12.1c-.5.5-1.3.5-1.7 0-.5-.5-.5-1.3 0-1.7l13.3-13.3c.5-2.4-.2-4.9-2-6.7l-4.3-4.3-7 7c-.5.5-1.3.5-1.7 0-.5-.5-.5-1.3 0-1.7l8.1-8.1c.5-2.4-.2-4.9-2-6.7l-4.3-4.3L65.2 58c-.5.5-1.3.5-1.7 0-.5-.5-.5-1.3 0-1.7l27.7-27.7c1-3.4.2-7.1-2.4-9.8-4-3.7-10.2-3.7-14.1.1z"/></g></svg>