<?xml version="1.0" encoding="UTF-8"?>
<!-- Created with Inkscape (http://www.inkscape.org/) -->
<svg id="SVGRoot" width="40px" height="40px" version="1.1" viewBox="0 0 40 40" xmlns="http://www.w3.org/2000/svg">
 <g transform="matrix(.037264 0 0 .037264 18.372 21.54)" fill="#227788" fill-rule="evenodd">
  <path d="m-269.37-328.32c-17.035 0-30.426 13.687-30.426 30.723v407.74c0 15.212 13.39 28.586 30.426 28.586h351.03v-28.586h-351.03v-333.54h423.56v191.65l30.709-3.4062v-262.44c0-17.035-13.375-30.723-30.709-30.723zm0 30.723h45.904v43.768h-45.904zm120.11 0h45.889v43.768h-45.889zm122.22 0h45.92v43.768h-45.92zm120.11 0h45.906v43.768h-45.906zm-224.64 145.74c-10.175-0.27108-17.689 7.2019-17.689 19.979v150.51c0 17.318 13.358 24.94 28.57 17.318l156.6-78.137c15.197-7.6062 15.197-20.98 0-28.586l-156.6-78.137c-3.8031-1.9016-7.4893-2.853-10.881-2.9434zm316.47 156.03-30.709 3.4062v32.609l30.709-3.5195zm0 71.838-24.115 2.7637v59.277c14.015-2.877 24.115-14.692 24.115-27.908zm-64.154 34.133v28.586h0.95899v-28.586z"/>
  <path d="m256.91 263.22c0-33.904 27.747-61.651 61.639-61.651h9.0886c3.1842 1.4716 6.1433 0 9.3295-1.4716 3.1987-3.1987 4.671-6.1438 4.671-9.3299v-138.52c0-3.188-1.4716-7.6161-4.671-9.0885-1.4608-3.1843-4.6584-3.1843-9.3295-3.1843l-175.6 20.132c-6.1434 0-10.802 5.9023-10.802 12.033v220.3 1.4716c0 32.418-29.233 60.166-61.651 60.166-35.364 0-63.111-29.461-63.111-63.111 0-33.904 27.747-61.651 63.111-61.651h9.3295c2.9432 0 6.1434 0 9.0885-3.188 1.4716-1.4716 3.1987-4.671 3.1987-7.6157v-224.72l279-30.946v303.32c0 32.419-27.76 60.166-61.651 60.166-33.891 0-61.639-27.747-61.639-63.111" style="mix-blend-mode:normal;paint-order:stroke fill markers"/>
 </g>
</svg>
