<svg version="1.1" id="Layer_1" xmlns="http://www.w3.org/2000/svg" x="0" y="0" width="120" height="60" xml:space="preserve"><style>.st0{fill:#fff}</style><path d="M73.6 51.5h-6.4c-.3 0-.5-.2-.5-.5s.2-.5.5-.5h6.4c.3 0 .5.2.5.5s-.2.5-.5.5zm9.2-4H67.2c-.3 0-.5-.2-.5-.5s.2-.5.5-.5h15.6c.3 0 .5.2.5.5-.1.2-.3.5-.5.5zm0-4H67.2c-.3 0-.5-.2-.5-.5s.2-.5.5-.5h15.6c.3 0 .5.2.5.5-.1.3-.3.5-.5.5zm0-4H70c-.3 0-.5-.2-.5-.5s.2-.5.5-.5h12.8c.3 0 .5.2.5.5-.1.3-.3.5-.5.5zm-26.3-5c-.3 0-.5.2-.5.5v.6l-22 6.7V42c0-.3-.2-.5-.5-.5s-.5.2-.5.5v5c0 .3.2.5.5.5s.5-.2.5-.5v-.3l4 1.2v2.2c0 2.2 1.8 4 4 4 2.1 0 3.9-1.7 4-3.8l10 3v.7c0 .3.2.5.5.5s.5-.2.5-.5V35c0-.3-.2-.5-.5-.5zM45 50.1c0 1.7-1.3 3-3 3s-3-1.3-3-3v-1.9l6 1.9zm-6.3-3c-.1 0-.2-.1-.2-.1L34 45.6v-2.3l22-6.7v15.7l-17.3-5.2z"/><path class="st0" d="M85 4.5c.3 0 .5.2.6.5v20.2c0 .3-.2.5-.5.5H65c-.3 0-.5-.2-.5-.5V5c0-.3.2-.5.5-.5h20m0-1H65c-.8 0-1.5.6-1.5 1.5v20.2c0 .8.6 1.5 1.5 1.5h20.2c.8 0 1.5-.6 1.5-1.5V5c0-.1 0-.2-.1-.3-.3-.8-.9-1.2-1.6-1.2z"/><path d="M86.6 34.7c-.3-.8-.9-1.2-1.6-1.2H65c-.8 0-1.5.6-1.5 1.5v20.2c0 .8.6 1.5 1.5 1.5h20.2c.8 0 1.5-.6 1.5-1.5V35c0-.1 0-.2-.1-.3zm-1 20.5c0 .3-.2.5-.5.5H65c-.3 0-.5-.2-.5-.5V35c0-.3.2-.5.5-.5h20c.3 0 .5.2.6.5v20.2zM9.5 42h3c1.7 0 3-1.3 3-3s-1.3-3-3-3c-1.3 0-2.4.8-2.8 2-1.2-.1-2.2.8-2.2 2 0 1.1.9 2 2 2zm0-3c.1 0 .2 0 .4.1.1.1.3 0 .4 0 .1-.1.2-.2.2-.4.2-1 1-1.7 2-1.7 1.1 0 2 .9 2 2s-.9 2-2 2h-3c-.6 0-1-.4-1-1s.4-1 1-1z"/><path d="M26.6 34.7c-.3-.8-.9-1.2-1.6-1.2H5c-.8 0-1.5.6-1.5 1.5v20.2c0 .8.6 1.5 1.5 1.5h20.2c.8 0 1.5-.6 1.5-1.5V35c0-.1 0-.2-.1-.3zM5 34.5h20c.3 0 .5.2.6.5v15h-.3l-3.4-6.8c-.4-.7-1.1-1.2-1.9-1.2s-1.5.4-1.9 1.1l-2.6 4.5C14.7 46.7 13 45 11 45c-2.5 0-4.3 3.8-4.8 5H4.5V35c0-.3.2-.5.5-.5zM24.2 50H7.3c.7-1.5 2.2-4 3.7-4 2.2 0 4.1 2.8 4.1 2.8.1.1.3.2.4.2.2 0 .3-.1.4-.2l3-5.2c.2-.4.6-.6 1-.6s.9.2 1.1.7l3.2 6.3zm.9 5.7H5c-.3 0-.5-.2-.5-.5V51h21.1v4.2c0 .3-.2.5-.5.5z"/><path class="st0" d="M9.5 12h3c1.7 0 3-1.3 3-3s-1.3-3-3-3c-1.3 0-2.4.8-2.8 2-1.2-.1-2.2.8-2.2 2 0 1.1.9 2 2 2zm0-3c.1 0 .2 0 .4.1.1.1.3 0 .4 0 .1-.1.2-.2.2-.4.2-1 1-1.7 2-1.7 1.1 0 2 .9 2 2s-.9 2-2 2h-3c-.6 0-1-.4-1-1s.4-1 1-1z"/><path class="st0" d="M26.6 4.7c-.3-.8-.9-1.2-1.6-1.2H5c-.8 0-1.5.6-1.5 1.5v20.2c0 .8.6 1.5 1.5 1.5h20.2c.8 0 1.5-.6 1.5-1.5V5c0-.1 0-.2-.1-.3zM5 4.5h20c.3 0 .5.2.6.5v15h-.3l-3.4-6.8c-.4-.7-1.1-1.2-1.9-1.2s-1.5.4-1.9 1.1l-2.6 4.5C14.7 16.7 13 15 11 15c-2.5 0-4.3 3.8-4.8 5H4.5V5c0-.3.2-.5.5-.5zM24.2 20H7.3c.7-1.5 2.2-4 3.7-4 2.2 0 4.1 2.8 4.1 2.8.1.1.3.2.4.2.2 0 .3-.1.4-.2l3-5.2c.2-.4.6-.6 1-.6s.9.2 1.1.7l3.2 6.3zm.9 5.7H5c-.3 0-.5-.2-.5-.5V21h21.1v4.2c0 .3-.2.5-.5.5zM73.6 21.5h-6.4c-.3 0-.5-.2-.5-.5s.2-.5.5-.5h6.4c.3 0 .5.2.5.5s-.2.5-.5.5zm9.2-4H67.2c-.3 0-.5-.2-.5-.5s.2-.5.5-.5h15.6c.3 0 .5.2.5.5-.1.2-.3.5-.5.5zm0-4H67.2c-.3 0-.5-.2-.5-.5s.2-.5.5-.5h15.6c.3 0 .5.2.5.5-.1.3-.3.5-.5.5zm0-4H70c-.3 0-.5-.2-.5-.5s.2-.5.5-.5h12.8c.3 0 .5.2.5.5-.1.3-.3.5-.5.5zm-26.3-5c-.3 0-.5.2-.5.5v.6l-22 6.7V12c0-.3-.2-.5-.5-.5s-.5.2-.5.5v5c0 .3.2.5.5.5s.5-.2.5-.5v-.3l4 1.2v2.2c0 2.2 1.8 4 4 4 2.1 0 3.9-1.7 4-3.8l10 3v.7c0 .3.2.5.5.5s.5-.2.5-.5V5c0-.3-.2-.5-.5-.5zM45 20.1c0 1.7-1.3 3-3 3s-3-1.3-3-3v-1.9l6 1.9zm-6.3-3c-.1 0-.1-.1-.2-.1L34 15.6v-2.3l22-6.7v15.7l-17.3-5.2zM115.6 4.7c-.3-.8-.9-1.2-1.6-1.2h-9.8l-1 1-7.7 7.7-1 1v12c0 .8.6 1.5 1.5 1.5h18.2c.8 0 1.5-.6 1.5-1.5V5c0-.1 0-.2-.1-.3zm-12.4 1.2v5.8c0 .3-.2.5-.5.5h-5.8l6.3-6.3zm11.4 19.3c0 .3-.2.5-.5.5H96c-.3 0-.5-.2-.5-.5V13.6l.4-.4h6.8c.8 0 1.5-.6 1.5-1.5V4.9l.4-.4h9.4c.3 0 .5.2.6.5v20.2z"/><path d="M115.6 34.7c-.3-.8-.9-1.2-1.6-1.2h-9.8l-1 1-7.7 7.7-1 1v12c0 .8.6 1.5 1.5 1.5h18.2c.8 0 1.5-.6 1.5-1.5V35c0-.1 0-.2-.1-.3zm-12.4 1.2v5.8c0 .3-.2.5-.5.5h-5.8l6.3-6.3zm11.4 19.3c0 .3-.2.5-.5.5H96c-.3 0-.5-.2-.5-.5V43.6l.4-.4h6.8c.8 0 1.5-.6 1.5-1.5v-6.8l.4-.4h9.4c.3 0 .5.2.6.5v20.2z"/></svg>