<?xml version="1.0" encoding="UTF-8" standalone="no"?>
<svg
   width="720"
   height="120"
   version="1.1"
   viewBox="0 0 720 120"
   xml:space="preserve"
   id="svg164"
   sodipodi:docname="viewerControlIcons.svg"
   inkscape:version="1.1.2 (0a00cf5339, 2022-02-04)"
   xmlns:inkscape="http://www.inkscape.org/namespaces/inkscape"
   xmlns:sodipodi="http://sodipodi.sourceforge.net/DTD/sodipodi-0.dtd"
   xmlns="http://www.w3.org/2000/svg"
   xmlns:svg="http://www.w3.org/2000/svg"><defs
     id="defs168" /><sodipodi:namedview
     id="namedview166"
     pagecolor="#505050"
     bordercolor="#eeeeee"
     borderopacity="1"
     inkscape:pageshadow="0"
     inkscape:pageopacity="0"
     inkscape:pagecheckerboard="0"
     showgrid="false"
     inkscape:zoom="1.0088235"
     inkscape:cx="340.99125"
     inkscape:cy="30.233236"
     inkscape:window-width="1920"
     inkscape:window-height="1010"
     inkscape:window-x="0"
     inkscape:window-y="0"
     inkscape:window-maximized="1"
     inkscape:current-layer="svg164" /><style
     id="style2">.st0,.st1{stroke-linecap:round}.st0{fill:none;stroke:#666;stroke-width:2;stroke-linejoin:round;stroke-miterlimit:10}.st1{stroke:#fff;stroke-width:1.5}.st1,.st2,.st3{fill:none;stroke-linejoin:round;stroke-miterlimit:10}.st2{stroke:#07c;stroke-width:2;stroke-linecap:round}.st3{stroke:#fff;stroke-width:1.5}.st4{fill:#fff}.st5,.st8{fill:none;stroke:#fff;stroke-width:1.5;stroke-miterlimit:10}.st8{stroke-linecap:round}.st11,.st9{opacity:.5;fill:#fff;enable-background:new}.st11{opacity:.6}</style><path
     class="st0"
     d="m 22.5,20.5 c 0.9,0.9 2.1,0.9 2.9,0.1 l 4,-4 c 1.2,-1.2 1.2,-3.1 0,-4.2 l -1.8,-1.8 c -1.2,-1.2 -3.1,-1.2 -4.2,0 l -4,4 c -0.8,0.8 -0.8,2.1 0,2.8 l 0.1,0.1 m -2,2 c -0.9,-0.9 -2.1,-0.9 -2.9,-0.1 l -4,4 c -1.2,1.2 -1.2,3.1 0,4.2 l 1.8,1.8 c 1.2,1.2 3.1,1.2 4.2,0 l 4,-4 c 0.8,-0.8 0.8,-2.1 0,-2.8 l -0.1,-0.1 m -4.4,1.4 7.8,-7.8"
     id="path4" /><circle
     class="st0"
     cx="219.7"
     cy="12.2"
     r="2.5999999"
     id="circle6" /><path
     class="st0"
     d="m 222.5,12.1 h 8.5 m -22,0 h 8"
     id="path8" /><circle
     class="st0"
     cx="214.60001"
     cy="20"
     r="2.5999999"
     id="circle10" /><path
     class="st0"
     d="m 217,20.1 h 14 m -22,0 h 3"
     id="path12" /><circle
     class="st0"
     cx="223.60001"
     cy="27.799999"
     r="2.5999999"
     id="circle14" /><path
     class="st0"
     d="m 226,27.6 h 5 m -22,0 h 12"
     id="path16" /><path
     class="st1"
     d="m 345.2,102.2 c 0.4,0.4 1,0.4 1.4,0 l 1.9,-1.9 c 0.6,-0.6 0.6,-1.5 0,-2.1 l -0.9,-0.9 c -0.6,-0.6 -1.5,-0.6 -2.1,0 l -1.9,1.9 c -0.4,0.4 -0.4,1 0,1.4 m -0.8,1.2 c -0.4,-0.4 -1,-0.4 -1.4,0 l -1.9,1.9 c -0.6,0.6 -0.6,1.5 0,2.1 l 0.9,0.9 c 0.6,0.6 1.5,0.6 2.1,0 l 1.9,-1.9 c 0.4,-0.4 0.4,-1 0,-1.4 m -2.3,0.5 3.8,-3.8 m 122.3,2.1 c 0.4,0.4 1,0.4 1.4,0 l 1.9,-1.9 c 0.6,-0.6 0.6,-1.5 0,-2.1 l -0.9,-0.9 c -0.6,-0.6 -1.5,-0.6 -2.1,0 l -1.9,1.9 c -0.4,0.4 -0.4,1 0,1.4 m -0.8,1.2 c -0.4,-0.4 -1,-0.4 -1.4,0 l -1.9,1.9 c -0.6,0.6 -0.6,1.5 0,2.1 l 0.9,0.9 c 0.6,0.6 1.5,0.6 2.1,0 l 1.9,-1.9 c 0.4,-0.4 0.4,-1 0,-1.4 m -2.3,0.5 3.8,-3.8 m -83.7,2.1 c 0.4,0.4 1,0.4 1.4,0 l 1.9,-1.9 c 0.6,-0.6 0.6,-1.5 0,-2.1 l -0.9,-0.9 c -0.6,-0.6 -1.5,-0.6 -2.1,0 l -1.9,1.9 c -0.4,0.4 -0.4,1 0,1.4 m -0.8,1.2 c -0.4,-0.4 -1,-0.4 -1.4,0 l -1.9,1.9 c -0.6,0.6 -0.6,1.5 0,2.1 l 0.9,0.9 c 0.6,0.6 1.5,0.6 2.1,0 l 1.9,-1.9 c 0.4,-0.4 0.4,-1 0,-1.4 m -2.3,0.5 3.8,-3.8"
     id="path18" /><path
     class="st0"
     d="m 259.1,29.5 c -4,-0.5 -7.2,-3.9 -7.2,-8 0,-1.3 0.3,-2.5 0.9,-3.6 m 6.3,-4.5 h 0.9 c 4.5,0 8.1,3.6 8.1,8.1 0,3.6 -2.4,6.7 -5.7,7.7"
     id="path20" /><path
     class="st0"
     d="m 261.2,10.5 -4.2,3 4.2,3 m -0.3,53 c 4,-0.5 7.2,-3.9 7.2,-8 0,-1.3 -0.3,-2.5 -0.9,-3.6 m -6.3,-4.5 H 260 c -4.5,0 -8.1,3.6 -8.1,8.1 0,3.6 2.4,6.7 5.7,7.7"
     id="path22" /><path
     class="st0"
     d="m 258.8,50.5 4.2,3 -4.2,3 m 91,-46.3 -7.4,7.4 M 342,10.2 h 7.8 V 18 m -19.6,11.8 7.4,-7.4 m 0.4,7.4 h -7.8 V 22 m 253.6,34.1 -7.4,7.4 M 576,56.1 h 7.8 v 7.8 M 300,9.6 v 10.1 m -5.5,-4.6 5.5,-5.5 5.5,5.5 m -9.2,15.3 v -7.8 l 7.4,7.3 v -7.3"
     id="path24" /><circle
     class="st0"
     cx="380"
     cy="20"
     r="10.5"
     id="circle26" /><path
     class="st0"
     d="m 375.5,20 h 9 m -4.5,4.5 v -9"
     id="path28" /><circle
     class="st0"
     cx="420"
     cy="20"
     r="10.5"
     id="circle30" /><path
     class="st0"
     d="m 415.5,20 h 9 M 70,25.7 v 1.7 C 70,28.8 68.8,30 67.4,30 H 52.6 C 51.2,30 50,28.8 50,27.4 V 25.7 M 60,25.6 V 10 m 6.4,9.2 -6.4,6.4 -6.4,-6.4 M 100,12.9 c 0,-2.1 5.7,-3.8 12.6,-3.8 v 18.1 c -7,0 -12.6,1.7 -12.6,3.8 0,-2.1 -5.7,-3.8 -12.6,-3.8 V 9 c 6.9,0 12.6,1.7 12.6,3.9 z m 0,0 V 30.8 M 97.3,15.3 C 95.5,14.6 93,14.1 90.2,13.9 m 7.1,4.7 C 95.5,17.9 93,17.4 90.2,17.2 m 7.1,4.7 C 95.5,21.2 93,20.7 90.2,20.5 m 7.1,4.7 C 95.5,24.5 93,24 90.2,23.8 m 12.5,-8.5 c 1.8,-0.7 4.3,-1.2 7.1,-1.4 m -7.1,4.7 c 1.8,-0.7 4.3,-1.2 7.1,-1.4 m -7.1,4.7 c 1.8,-0.7 4.3,-1.2 7.1,-1.4 m -7.1,4.7 c 1.8,-0.7 4.3,-1.2 7.1,-1.4 m 59.7,-13.7 h 4.7 v 4.7 h -4.7 z m 8.1,0 h 4.7 v 4.7 h -4.7 z m 8.2,0 h 4.7 v 4.7 h -4.7 z m -16.3,7.5 h 4.7 v 4.7 h -4.7 z m 8.1,0 h 4.7 v 4.7 h -4.7 z m 8.2,0 h 4.7 v 4.7 h -4.7 z m -16.3,7.6 h 4.7 v 4.7 h -4.7 z m 8.1,0 h 4.7 v 4.7 h -4.7 z m 8.2,0 h 4.7 v 4.7 h -4.7 z"
     id="path32" /><path
     class="st2"
     d="m 62.5,76.7 v 8.2 l -9.7,9.8 H 35.1 v 7.8 L 17.5,80 35.1,57.5 v 7.8 h 27.4 z"
     id="path34" /><path
     class="st2"
     d="M 52.4,94.2 V 84.6 H 62 M 103.4,63 v 4.4 L 96.6,60 103.4,52.6 V 57"
     id="path36" /><path
     class="st2"
     d="M 107.4,52.6 V 67.4 L 100.7,60 Z M 99.3,63 v 4.4 L 92.6,60 99.3,52.6 V 57 m 5.7,35.6 v 14.8 L 98.2,100 Z m -10,0 v 14.8 m 82.5,-30.7 v 8.2 l 9.7,9.8 h 17.7 v 7.8 L 222.5,80 204.9,57.5 v 7.8 h -27.4 z"
     id="path38" /><path
     class="st2"
     d="M 187.6,94.2 V 84.6 H 178 m -41.4,-21.7 -0.1,4.4 6.8,-7.4 -6.7,-7.4 v 4.4"
     id="path40" /><path
     class="st2"
     d="m 132.6,52.4 -0.1,14.9 6.8,-7.4 z m 8,10.5 v 4.4 l 6.8,-7.4 -6.7,-7.4 v 4.4 M 135,92.6 v 14.8 l 6.8,-7.4 z m 10,0 v 14.8"
     id="path42" /><path
     class="st1"
     d="m 377.1,68.4 h -3.4 c -0.8,0 -1.5,-0.7 -1.5,-1.5 V 53.4"
     id="path44" /><path
     class="st1"
     d="m 386.2,51.6 h -12.5 c -0.8,0 -1.5,0.7 -1.5,1.5 0,0.8 0.7,1.5 1.5,1.5 h 12.5 v 2.3"
     id="path46" /><circle
     class="st1"
     cx="383.20001"
     cy="64"
     r="4.4000001"
     id="circle48" /><path
     class="st1"
     d="m 383.2,65.9 v -3.7 m -1.4,2.2 1.4,1.5 1.5,-1.5 M 343.2,51.6 h -9.8 c -0.8,0 -1.5,0.7 -1.5,1.5 V 67 c 0,0.8 0.7,1.5 1.5,1.5 h 4.4"
     id="path50" /><circle
     class="st1"
     cx="343.5"
     cy="64"
     r="4.4000001"
     id="circle52" /><path
     class="st1"
     d="m 343.5,65.9 v -3.7 m -1.5,2.2 1.5,1.5 1.5,-1.5 m -9.9,1.1 h 0.5 m -0.5,-10.8 h 7.6 m -7.6,2.7 h 4.3 m -4.3,2.7 h 1.6 m -1.6,2.7 h 0.3 m 41.7,45.6 h -3.4 c -0.8,0 -1.5,-0.7 -1.5,-1.5 V 93.4"
     id="path54" /><path
     class="st1"
     d="m 386.2,91.6 h -12.5 c -0.8,0 -1.5,0.7 -1.5,1.5 0,0.8 0.7,1.5 1.5,1.5 h 12.5 m -43,-3 h -9.8 c -0.8,0 -1.5,0.7 -1.5,1.5 V 107 c 0,0.8 0.7,1.5 1.5,1.5 h 4.4 m -2.7,-3 h 0.5 m -0.5,-10.8 h 7.6 m -7.6,2.7 h 5.3 m -5.3,2.7 h 2.6 m -2.6,2.7 h 1.3 M 303,51.5 v 5 m -5.2,-5 v 17 m 9.6,-17 h -12.6 c -2.5,0 -4.5,2 -4.5,4.5 0,2.5 2,4.5 4.5,4.5 h 3"
     id="path56" /><circle
     class="st1"
     cx="305.10001"
     cy="63.700001"
     r="4.4000001"
     id="circle58" /><path
     class="st1"
     d="m 305.1,65.6 v -3.7 m -1.4,2.2 1.4,1.5 1.5,-1.5"
     id="path60" /><path
     class="st0"
     d="m 272,98.2 v 4.5 l -5.3,5.3 H 257 v 4.3 L 247.4,100 257,87.7 V 92 h 15 z"
     id="path62" /><path
     class="st0"
     d="m 267,108 v -5 h 5 m 16,-4.8 v 4.5 l 5.3,5.3 h 9.7 v 4.3 L 312.6,100 303,87.7 V 92 h -15 z"
     id="path64" /><path
     class="st0"
     d="m 293,108 v -5 h -5"
     id="path66" /><path
     class="st3"
     d="M 428,52.7 411.6,59.5 418,62 Z"
     id="path68" /><path
     class="st3"
     d="M 428,52.7 425.1,65.9 418,62 Z M 418,62 v 5.7 l 2.5,-4.3"
     id="path70" /><path
     class="st1"
     d="m 428.2,102.2 c 0.4,0.4 1,0.4 1.4,0 l 1.9,-1.9 c 0.6,-0.6 0.6,-1.5 0,-2.1 l -0.9,-0.9 c -0.6,-0.6 -1.5,-0.6 -2.1,0 l -1.9,1.9 c -0.4,0.4 -0.4,1 0,1.4 m -0.8,1.2 c -0.4,-0.4 -1,-0.4 -1.4,0 l -1.9,1.9 c -0.6,0.6 -0.6,1.5 0,2.1 l 0.9,0.9 c 0.6,0.6 1.5,0.6 2.1,0 l 1.9,-1.9 c 0.4,-0.4 0.4,-1 0,-1.4 m -2.3,0.5 3.8,-3.8"
     id="path72" /><ellipse
     class="st1"
     cx="420.39999"
     cy="93.800003"
     rx="7.9000001"
     ry="3.3"
     id="ellipse74" /><path
     class="st1"
     d="m 421.7,100.5 h -1.2 c -4.4,0 -7.9,-1.5 -7.9,-3.3 m 5.9,7 c -3.4,-0.4 -6,-1.7 -6,-3.2"
     id="path76" /><path
     class="st1"
     d="m 420.4,108 c -4.4,0 -7.9,-1.5 -7.9,-3.3 V 93.8 m 48.5,7.3 h -8.3 v -8.9 h 5 m 3.6,0 h 5 v 2"
     id="path78" /><path
     class="st1"
     d="m 457.7,91.5 h 3.7 V 93 h -3.7 z m 3.2,9.6 h -8.2 c -0.4,0 -0.7,0.3 -0.7,0.7 0,0.4 0.3,0.7 0.7,0.7 h 6.4 m 0,0.1 v 4.4 m -4.5,0 2.2,-4.4 M 459.1,90 v 1.5 m 9.2,-31.7 h -7 v -8.7 h 4.4 l 2.6,2.6 z"
     id="path80" /><path
     class="st1"
     d="m 465.7,51.1 v 2.6 h 2.6 m 0,17.5 h -7 v -8.8 h 4.4 l 2.6,2.6 z"
     id="path82" /><path
     class="st1"
     d="M 465.7,62.4 V 65 h 2.6 M 452.6,51.1 v 0.8 m 0,4.4 v 0.9 m 0,-3.5 v 0.9 h 0.8 m -0.8,4.3 v 0.9 m 0,1.8 v 0.8 m 0,1.8 V 65 m 0,1.8 v 0.9 h 0.8 m 1.8,-13.1 h 0.9 m 1.7,0 h 0.9 m 1.7,0 h 0.9 m -6.1,13.1 h 0.9 m 1.7,0 h 0.9 m 1.7,0 h 0.9"
     id="path84" /><circle
     class="st1"
     cx="459.89999"
     cy="20"
     r="8"
     id="circle86" /><path
     class="st1"
     d="m 458.3,24.4 h 3.9 M 459,18.6 h 1.2 V 24"
     id="path88" /><path
     class="st3"
     d="m 459.9,15.7 c -0.2,0 -0.3,0.1 -0.3,0.3 0,0.2 0.1,0.3 0.3,0.3 0.2,0 0.3,-0.1 0.3,-0.3 0,-0.2 -0.1,-0.3 -0.3,-0.3 z"
     id="path90" /><circle
     class="st4"
     cx="499.60001"
     cy="20"
     r="8"
     id="circle92" /><path
     class="st4"
     d="m 499.6,26.5 v -13 c 3.6,0 6.5,2.9 6.5,6.5 0,3.6 -2.9,6.5 -6.5,6.5 z"
     id="path94" /><path
     class="st5"
     d="m 490,52.3 h 19.2 V 69.8 H 490 Z"
     id="path96" /><path
     class="st4"
     d="m 490.8,52.5 h 4.4 V 70 h -4.4 z"
     id="path98" /><path
     d="m 495.2,52.5 h 4.4 V 70 h -4.4 z"
     fill="#ffffff"
     opacity="0.66"
     id="path100" /><path
     d="M 499.6,52.5 H 504 V 70 h -4.4 z"
     fill="#ffffff"
     opacity="0.33"
     id="path102" /><path
     class="st8"
     d="m 499.6,90.3 v 0.9 m 0,17.6 v 0.9"
     id="path104" /><circle
     class="st4"
     cx="499.60001"
     cy="100"
     r="5.5"
     id="circle106" /><path
     class="st8"
     d="m 506.4,93.2 -0.5,0.6 m -12.5,12.4 -0.6,0.6 m 13.6,0 -0.5,-0.6 m -12.5,-12.4 -0.6,-0.6 m 16.5,6.8 h -0.9 m -17.6,0 h -0.9"
     id="path108" /><path
     class="st4"
     d="m 531.3,12 h 3.8 v 3.8 h -3.8 z"
     id="path110" /><path
     class="st9"
     d="m 537.4,12 h 3.8 v 3.8 h -3.8 z"
     id="path112" /><path
     d="m 543.5,12 h 3.8 v 3.8 h -3.8 z"
     fill="#ffffff"
     opacity="0.3"
     id="path114" /><path
     class="st11"
     d="m 531.3,18.1 h 3.8 v 3.8 h -3.8 z"
     id="path116" /><path
     d="m 537.4,18.1 h 3.8 v 3.8 h -3.8 z"
     fill="#ffffff"
     opacity="0.2"
     id="path118" /><path
     class="st11"
     d="m 543.5,18.1 h 3.8 v 3.8 h -3.8 z"
     id="path120" /><path
     d="m 531.3,24.2 h 3.8 V 28 h -3.8 z"
     fill="#ffffff"
     opacity="0.4"
     id="path122" /><path
     class="st9"
     d="m 537.4,24.2 h 3.8 V 28 h -3.8 z"
     id="path124" /><path
     class="st4"
     d="m 543.5,24.2 h 3.8 V 28 h -3.8 z"
     id="path126" /><path
     class="st5"
     d="m 532.1,54.5 h 14.5 v 13.1 h -14.5 z"
     id="path128" /><path
     class="st1"
     d="m 540.8,92.5 -3.4,2.4 3.4,2.4"
     id="path130" /><path
     class="st1"
     d="m 539.3,94.7 c 3.5,0 6.4,2.9 6.4,6.4 0,3.5 -2.9,6.4 -6.4,6.4 -3.5,0 -6.4,-2.9 -6.4,-6.4"
     id="path132" /><path
     class="st4"
     d="M 532.1,67.7 V 54.5 h 14.5"
     id="path134" /><circle
     class="st0"
     cx="577.40002"
     cy="18.6"
     r="8.1999998"
     id="circle136" /><path
     class="st0"
     d="m 589.2,30.5 -6.1,-6.1 M 621.8,99 h -11 m 5.9,-5.3 5.5,5.5 -5.5,5.5"
     id="path138" /><path
     class="st0"
     d="M 613,92.9 V 88 h 10.7 l 5.3,5.3 V 110 h -16 v -5"
     id="path140" /><path
     class="st0"
     d="m 629,93 h -5 v -5 m 0.3,-63.7 c -1.6,1.6 -3.9,2.6 -6.4,2.6 -5,0 -9,-4 -9,-9 0,-5 4,-9 9,-9 5,0 9,4 9,9 0,2.5 -1,4.8 -2.6,6.4 m 0.2,0.2 6.4,6.4"
     id="path142" /><path
     class="st0"
     d="m 611.9,18.9 v -3 h 12 v 3 m -6,11.1 v 2 m 0,-16.1 v 8 m -2.5,8.1 h 5"
     id="path144" /><path
     class="st2"
     d="m 589.4,104.5 -5,2 -2,5 -14,-14 v -7 h 7 z m -18,-17 h 7 l 13,13 -1.5,0.5"
     id="path146" /><circle
     class="st2"
     cx="572.90002"
     cy="95"
     r="1.5"
     id="circle148" /><path
     class="st0"
     d="m 624.6,69.4 -9.4,-9.4 9.4,-9.4"
     id="path150" /><path
     class="st0"
     d="m 144.7,23.5 c -1.7,1.7 -4.1,2.8 -6.7,2.8 -5.2,0 -9.5,-4.3 -9.5,-9.5 0,-5.2 4.3,-9.5 9.5,-9.5 5.2,0 9.5,4.3 9.5,9.5 0,2.6 -1.1,5 -2.8,6.7 l 6.8,6.8"
     id="path152" /><path
     class="st0"
     d="m 132.5,18.3 v -3 h 12 v 3 m -6,12 v 2 m 0,-17 v 7 m -2.5,10 h 5"
     id="path154" /><path
     class="st1"
     d="m 660.2,93.6 v 15.1 m -2.9,0 h 5.8 m -13.6,-9 3.4,-8 3.4,8 m 5.3,-7.6 c 0,0.8 -0.7,1.5 -1.5,1.5 -0.8,0 -1.5,-0.7 -1.5,-1.5 0,-0.8 0.7,-1.5 1.5,-1.5 0.9,0.1 1.5,0.7 1.5,1.5 z m -8.7,11.2 c 1.9,0 3.4,-1.5 3.4,-3.6 h -6.8 c 0,2.1 1.5,3.6 3.4,3.6 z m 18.9,-3.6 -3.4,-8 -3.4,8 m 3.4,3.6 c -1.9,0 -3.4,-1.5 -3.4,-3.6 h 6.8 c 0,2.1 -1.5,3.6 -3.4,3.6 z m -9.6,-11.6 h -7.4 m 10.2,0 h 8.3"
     id="path156" /><g
     transform="matrix(0.037264,0,0,0.037264,659.06,20.148)"
     fill="#666666"
     fill-rule="evenodd"
     id="g162"><path
       d="m -269.37,-328.32 c -17.035,0 -30.426,13.687 -30.426,30.723 v 407.74 c 0,15.212 13.39,28.586 30.426,28.586 H 81.66 v -28.586 h -351.03 v -333.54 h 423.56 v 191.65 l 30.709,-3.4062 v -262.44 c 0,-17.035 -13.375,-30.723 -30.709,-30.723 z m 0,30.723 h 45.904 v 43.768 h -45.904 z m 120.11,0 h 45.889 v 43.768 h -45.889 z m 122.22,0 h 45.92 v 43.768 h -45.92 z m 120.11,0 h 45.906 v 43.768 H 93.07 Z m -224.64,145.74 c -10.175,-0.27108 -17.689,7.2019 -17.689,19.979 v 150.51 c 0,17.318 13.358,24.94 28.57,17.318 l 156.6,-78.137 c 15.197,-7.6062 15.197,-20.98 0,-28.586 l -156.6,-78.137 c -3.8031,-1.9016 -7.4893,-2.853 -10.881,-2.9434 z M 184.9,4.173 154.191,7.5792 v 32.609 L 184.9,36.6687 Z m 0,71.838 -24.115,2.7637 v 59.277 c 14.015,-2.877 24.115,-14.692 24.115,-27.908 z m -64.154,34.133 v 28.586 h 0.95899 v -28.586 z"
       id="path158" /><path
       d="m 256.91,263.22 c 0,-33.904 27.747,-61.651 61.639,-61.651 h 9.0886 c 3.1842,1.4716 6.1433,0 9.3295,-1.4716 3.1987,-3.1987 4.671,-6.1438 4.671,-9.3299 v -138.52 c 0,-3.188 -1.4716,-7.6161 -4.671,-9.0885 -1.4608,-3.1843 -4.6584,-3.1843 -9.3295,-3.1843 l -175.6,20.132 c -6.1434,0 -10.802,5.9023 -10.802,12.033 v 221.77 c 0,32.418 -29.233,60.166 -61.651,60.166 -35.364,0 -63.111,-29.461 -63.111,-63.111 0,-33.904 27.747,-61.651 63.111,-61.651 h 9.3295 c 2.9432,0 6.1434,0 9.0885,-3.188 1.4716,-1.4716 3.1987,-4.671 3.1987,-7.6157 V -6.21 l 279,-30.946 v 303.32 c 0,32.419 -27.76,60.166 -61.651,60.166 -33.891,0 -61.639,-27.747 -61.639,-63.111"
       style="mix-blend-mode:normal;paint-order:stroke fill markers"
       id="path160" /></g><g
     style="fill:#666666;fill-opacity:1"
     id="g1017"
     transform="matrix(0.034375,0,0,0.034375,682.02511,116.63447)"><path
       d="m 160,-160 v -320 h 160 v 320 z m 240,0 v -640 h 160 v 640 z m 240,0 v -440 h 160 v 440 z"
       id="path1008"
       style="fill:#666666;fill-opacity:1" /></g><g
     style="fill:#666666;fill-opacity:1"
     id="g1028"
     transform="matrix(0.0275,0,0,0.0275,685.31438,33.233626)"><path
       d="m 160,-800 80,160 h 120 l -80,-160 h 80 l 80,160 h 120 l -80,-160 h 80 l 80,160 h 120 l -80,-160 h 120 q 33,0 56.5,23.5 23.5,23.5 23.5,56.5 v 480 q 0,33 -23.5,56.5 Q 833,-160 800,-160 H 160 q -33,0 -56.5,-23.5 Q 80,-207 80,-240 v -480 q 0,-33 23.5,-56.5 Q 127,-800 160,-800 Z m 0,240 v 320 h 640 v -320 z m 0,0 v 320 z"
       id="path1019"
       style="fill:#666666;fill-opacity:1" /></g><g
     style="fill:#666666;fill-opacity:1"
     id="g1138"
     transform="matrix(0.0275,0,0,0.0275,685.32511,73.2)"><path
       d="m 500,-360 q 42,0 71,-29 29,-29 29,-71 v -220 h 120 v -80 H 560 v 220 q -13,-10 -28,-15 -15,-5 -32,-5 -42,0 -71,29 -29,29 -29,71 0,42 29,71 29,29 71,29 z m -180,120 q -33,0 -56.5,-23.5 Q 240,-287 240,-320 v -480 q 0,-33 23.5,-56.5 Q 287,-880 320,-880 h 480 q 33,0 56.5,23.5 23.5,23.5 23.5,56.5 v 480 q 0,33 -23.5,56.5 Q 833,-240 800,-240 Z m 0,-80 H 800 V -800 H 320 Z M 160,-80 q -33,0 -56.5,-23.5 Q 80,-127 80,-160 v -560 h 80 v 560 h 560 v 80 z m 160,-720 v 480 z"
       id="path1129"
       style="fill:#666666;fill-opacity:1" /></g><g
     style="fill:#666666;fill-opacity:1"
     id="g46741"
     transform="matrix(0.03181817,0,0,0.03181817,644.71005,74.009082)"><path
       d="m 120,-320 v -80 h 280 v 80 z m 0,-160 v -80 h 440 v 80 z m 0,-160 v -80 h 440 v 80 z m 520,480 V -320 H 480 v -80 h 160 v -160 h 80 v 160 h 160 v 80 H 720 v 160 z"
       id="path46732"
       style="fill:#666666;fill-opacity:1" /></g></svg>
