<?xml version="1.0" encoding="utf-8"?>
<!-- Generator: Adobe Illustrator 23.0.6, SVG Export Plug-In . SVG Version: 6.00 Build 0)  -->
<svg version="1.1" id="Layer_1" xmlns="http://www.w3.org/2000/svg" xmlns:xlink="http://www.w3.org/1999/xlink" x="0px" y="0px"
	 width="1024px" height="360px" viewBox="0 0 1024 360" style="enable-background:new 0 0 1024 360;" xml:space="preserve">
<style type="text/css">
	.st0{fill:#231F20;}
</style>
<g>
	<g>
		<path class="st0" d="M0,352.3h183.8c48.6,0,90.8-10.4,120.8-36.8c29.9-26.4,48.3-69,48.3-135.3c0-71.1-17.2-114.3-45.7-139.9
			c-28.5-25.6-69.3-34.2-118-34.2v0H0v74.8h127.9h32.4c24.3-0.1,40.9,8.5,50.3,25.1c9.4,16.5,12.2,40,12.3,70.7
			c0,29.6-2.6,52.8-11.8,69.4c-9.2,16.6-25.7,25.5-50.2,25.4h-36.5V148.9H0V352.3z"/>
	</g>
	<polygon class="st0" points="379.8,352.3 504.1,352.3 504.1,226.7 658.8,226.7 658.8,148.9 504.1,148.9 504.1,80.8 658.8,80.8 
		658.8,6.1 379.8,6.1 	"/>
	<g>
		<path class="st0" d="M744.3,43.7c-36.7,29-59.9,72.2-59.9,130.5c0,62.2,22.4,107.9,58.6,138.4c36.2,30.5,86.6,45.8,142.9,45.8
			c52.7,0,94.3-5.3,138.2-18.3V180.3H918.4v93l-2.3,0.9c-8.9,3.4-19.9,3.2-29.3,3.3c-27.2,0.1-46.6-11.3-58.5-28.9
			c-11.9-17.6-16.7-41.1-16.7-65.9c0-32.9,11.2-58.7,31-76c19.8-17.3,47.8-25.9,81.1-25.9c34,0,60.8,7.6,79.8,17.7V12.4
			C972.1,4.7,948.2,0,885.8,0h0C831.5,0,781.1,14.7,744.3,43.7"/>
	</g>
</g>
</svg>
