<svg version="1.1" id="Layer_1" xmlns="http://www.w3.org/2000/svg" x="0" y="0" width="440" height="130" xml:space="preserve"><style>.st0{fill:#fff}</style><path class="st0" d="M24.1 4v11.1l75.4 10.6v79.8l11.2 1.6V16.2L24.1 4zM2 112.9L88.6 125V34.1L2 21.9v91zM189.8 114.1c-7.1 0-15.7-1.1-22.4-4V93.4c1.8-.2 4.4-.4 6.1-.4 1.8 0 4.6.1 6.2.4l1.2 7.4c2.5.8 6.1 1.3 10.1 1.3 8.1 0 11.7-3.4 11.7-9.7 0-14.4-34.7-12.6-34.7-36.2 0-14.8 11.7-23.1 28.8-23.1 6.1 0 13.2.7 18.6 2.1v17.7c-1.8.2-4.6.5-6.2.5-1.8 0-4.8-.2-6.5-.5l-.9-7.2c-1.8-.2-4.7-.5-7.1-.5-8.5 0-11.3 3.6-11.3 9.5 0 12.4 34.7 11.8 34.7 36-.4 14.6-11.4 23.4-28.3 23.4zm95-1.2h-54.4c-.1-1.6-.2-3.9-.2-5.5s.1-3.9.2-5.5l8-1.2V46.2l-8-1.2c-.1-1.6-.2-3.9-.2-5.5s.1-3.9.2-5.5H261c.1 1.6.2 3.9.2 5.5s-.1 3.9-.2 5.5l-8.1 1.2v54.7H271l.9-7.4c1.8-.2 4.8-.3 6.5-.3 1.8 0 4.4.1 6.2.3v19.4h.2zm80.1-67.8l-6.7 1.2v37.6c0 21.2-10.2 30.2-29.5 30.2-20.2 0-29.5-9-29.5-30.2V46.3l-6.7-1.2c-.1-1.6-.2-3.9-.2-5.5s.1-3.9.2-5.5h27.6c.2 1.6.4 3.9.4 5.5s-.1 3.9-.4 5.5l-6.3 1.2v37.6c0 12.6 3.7 17.4 15.1 17.4 11.3 0 15.3-4.8 15.3-17.4V46.3l-6.3-1.2c-.2-1.6-.4-3.9-.4-5.5s.1-3.9.4-5.5h26.9c.2 1.6.4 3.9.4 5.5.1 1.6 0 3.9-.3 5.5zm45.1 68.5c-8.2 0-22.3-.2-31.8-.7-.1-1.6-.2-3.9-.2-5.5s.1-3.9.2-5.5l8-1.2V46.2l-8-1.2c-.1-1.6-.2-3.9-.2-5.5s.1-3.9.2-5.5c9.7-.5 20.6-.7 30.6-.7 18 0 27.9 6.1 27.9 20.8 0 8.1-4.7 14.1-10.8 17v.9c8.3 2.7 13 9.2 13 18.4.1 17-12.3 23.2-28.9 23.2zm-.3-69c-2.5 0-6.3.1-9.2.2v22.3h10.8c6.5 0 10.8-3.7 10.8-11.6-.1-7.6-4.4-10.9-12.4-10.9zm1.6 33.6h-10.9v23.9c2.2.1 7.5.2 10.1.2 9.2 0 13.4-3.9 13.4-12.5 0-8-4.8-11.6-12.6-11.6z"/></svg>